<?xml version="1.0" ?><!DOCTYPE svg  PUBLIC '-//W3C//DTD SVG 1.1//EN'  'http://www.w3.org/Graphics/SVG/1.1/DTD/svg11.dtd'><svg clip-rule="evenodd" fill-rule="evenodd" font-size="0" height="512px" image-rendering="optimizeQuality" preserveAspectRatio="xMidYMid" shape-rendering="geometricPrecision" text-rendering="geometricPrecision" version="1.1" viewBox="0, 0, 512000, 512000" width="512px" xml:space="preserve" xmlns="http://www.w3.org/2000/svg" xmlns:xlink="http://www.w3.org/1999/xlink" xmlns:xml="http://www.w3.org/XML/1998/namespace"><g><path d="M257130 6860 C394934 6860 506647 118573 506647 256377 C506647 394181 394934 505894 257130 505894 C119326 505894 7613 394181 7613 256377 C7613 118573 119326 6860 257130 6860 z" style="fill:#008DD2;"/></g><g><path d="M196822 314135 C196822 325510 201923 334131 212124 340000 C222325 345868 236093 348802 253426 348802 C262274 348802 270443 347809 277937 345823 C285430 343836 291930 340993 297437 337292 C302943 333590 307232 329121 310302 323885 C313371 318649 314906 312781 314906 306281 C314906 299059 313191 293101 309760 288406 C306329 283711 301816 279739 296219 276490 C264192 257892 226726 261739 204135 247697 C197455 243544 192083 238308 188020 231988 C183958 225669 181927 217725 181927 208156 C181927 199128 183823 190912 187615 183510 C191406 176107 196642 169788 203323 164551 C210003 159315 218038 155298 227427 152499 C236817 149701 247018 148301 258032 148301 C268684 148301 278390 149294 287146 151280 C295904 153267 303487 156290 309896 160353 C316306 164416 321271 169561 324792 175790 C328313 182020 330073 189377 330073 197864 C330073 205989 328494 211767 325334 215198 C322173 218628 318969 220343 315719 220343 C311566 220343 309490 218899 309490 216010 C309490 215108 309807 214250 310438 213438 C311070 212625 311702 211587 312334 210323 C312966 209059 313598 207434 314230 205449 C314862 203462 315178 200935 315178 197865 C315178 186490 310077 177869 299876 172000 C289675 166132 275907 163198 258574 163198 C249726 163198 241557 164191 234063 166177 C226570 168164 220070 171007 214563 174708 C209057 178410 204768 182879 201698 188115 C198629 193351 197094 199219 197094 205719 C197094 212941 198809 218899 202240 223594 C205671 228289 210184 232261 215781 235510 C247808 254108 285274 250261 307865 264303 C314545 268456 319917 273692 323980 280012 C328042 286331 330073 294275 330073 303844 C330073 312872 328177 321088 324385 328490 C320594 335893 315358 342212 308677 347449 C301997 352685 293962 356702 284573 359501 C275183 362299 264982 363699 253968 363699 C243316 363699 233610 362706 224854 360720 C216096 358733 208513 355710 202104 351647 C195694 347584 190729 342439 187208 336210 C183687 329980 181927 322623 181927 314136 C181927 306011 183506 300233 186666 296802 C189827 293372 193031 291657 196281 291657 C200434 291657 202510 293101 202510 295990 C202510 296892 202193 297750 201562 298562 C200930 299375 200298 300413 199666 301677 C199034 302941 198402 304566 197770 306551 C197138 308538 196822 311065 196822 314135 z" style="fill:#FFFFFF;"/></g></svg>